<svg width="328" height="300" viewBox="0 0 328 300" fill="none" xmlns="http://www.w3.org/2000/svg">
    <rect width="328" height="300" rx="20" fill="url(#paint0_linear_1_3)" />
    <path
        d="M106.295 260.621V262.238H99.9667V267.564H98.0331V262.238H91.7753V260.621H106.295ZM93.3046 255.805C93.2958 253.625 95.6161 252.245 98.9999 252.236C102.384 252.245 104.722 253.625 104.73 255.805C104.722 257.958 102.384 259.329 98.9999 259.32C95.6161 259.329 93.2958 257.958 93.3046 255.805ZM95.3085 255.805C95.2997 257.044 96.7587 257.773 98.9999 257.773C101.25 257.773 102.709 257.044 102.709 255.805C102.709 254.557 101.25 253.818 98.9999 253.818C96.7587 253.818 95.2997 254.557 95.3085 255.805ZM121.564 260.533V262.115H115.253V267.547H113.32V262.115H107.079V260.533H121.564ZM107.835 257.932C110.955 257.536 113.047 255.857 113.188 254.117H108.415V252.57H120.228V254.117H115.455C115.587 255.857 117.662 257.536 120.808 257.932L120.105 259.461C117.398 259.074 115.288 257.835 114.322 256.121C113.346 257.835 111.254 259.074 108.574 259.461L107.835 257.932ZM127.517 252.781C130.039 252.772 131.876 254.363 131.893 256.613C131.876 258.872 130.039 260.454 127.517 260.463C125.02 260.454 123.148 258.872 123.157 256.613C123.148 254.363 125.02 252.772 127.517 252.781ZM122.436 262.66C125.302 262.66 129.266 262.625 132.702 262.133L132.86 263.557C129.301 264.233 125.486 264.26 122.683 264.26L122.436 262.66ZM125.091 256.613C125.082 257.94 126.128 258.758 127.517 258.758C128.923 258.758 129.969 257.94 129.977 256.613C129.969 255.295 128.932 254.469 127.517 254.469C126.128 254.469 125.082 255.295 125.091 256.613ZM133.651 267.582V251.674H135.602V267.582H133.651ZM154.926 251.674V267.564H152.957V251.674H154.926ZM141.76 263.188C145.926 261.21 147.842 258.521 148.193 254.908H142.568V253.361H150.18C150.18 258.09 148.343 262.106 142.779 264.752L141.76 263.188ZM171.443 259.531V261.096H165.308V264.014H163.322V261.096H156.923V259.531H171.443ZM158.47 255.277C158.461 253.282 160.747 252.025 164.166 252.025C167.602 252.025 169.861 253.282 169.861 255.277C169.861 257.281 167.602 258.521 164.166 258.512C160.747 258.521 158.461 257.281 158.47 255.277ZM158.699 267.248V262.537H160.667V265.648H169.843V267.248H158.699ZM160.58 255.277C160.562 256.332 161.986 256.947 164.166 256.947C166.363 256.947 167.778 256.332 167.769 255.277C167.778 254.188 166.363 253.572 164.166 253.572C161.986 253.572 160.562 254.188 160.58 255.277ZM188.762 251.674V255.365H190.977V256.982H188.762V260.621H186.811V251.674H188.762ZM176.897 259.918V252.693H183.963V254.275H178.831V258.336C181.819 258.327 183.48 258.222 185.37 257.844L185.581 259.391C183.498 259.848 181.652 259.918 178.18 259.918H176.897ZM178.497 267.354V261.342H188.762V267.354H178.497ZM180.43 265.807H186.829V262.906H180.43V265.807ZM204.383 256.174V257.721H193.379V252.254H195.313V256.174H204.383ZM191.498 261.113V259.566H206.018V261.113H191.498ZM193.238 267.195V262.52H195.189V265.613H204.488V267.195H193.238ZM221.287 258.969V260.551H214.994V261.887C217.833 262.071 219.52 263.056 219.529 264.699C219.52 266.527 217.446 267.547 214.027 267.547C210.555 267.547 208.49 266.527 208.49 264.699C208.49 263.056 210.177 262.062 213.06 261.878V260.551H206.802V258.969H221.287ZM207.505 256.701C210.423 256.429 212.331 255.242 212.656 253.941H208.121V252.377H219.986V253.941H215.407C215.723 255.251 217.613 256.429 220.601 256.701L219.916 258.248C217.024 257.949 214.888 256.798 214.027 255.189C213.166 256.798 211.056 257.949 208.173 258.248L207.505 256.701ZM210.476 264.699C210.467 265.578 211.715 266.062 214.027 266.053C216.303 266.062 217.56 265.578 217.578 264.699C217.56 263.82 216.303 263.354 214.027 263.346C211.715 263.354 210.467 263.82 210.476 264.699ZM224.023 266.141C223.267 266.141 222.643 265.525 222.651 264.77C222.643 264.031 223.267 263.425 224.023 263.416C224.752 263.425 225.376 264.031 225.376 264.77C225.376 265.525 224.752 266.141 224.023 266.141ZM228.657 266.141C227.901 266.141 227.277 265.525 227.286 264.77C227.277 264.031 227.901 263.425 228.657 263.416C229.386 263.425 230.01 264.031 230.01 264.77C230.01 265.525 229.386 266.141 228.657 266.141ZM233.291 266.141C232.535 266.141 231.911 265.525 231.92 264.77C231.911 264.031 232.535 263.425 233.291 263.416C234.021 263.425 234.645 264.031 234.645 264.77C234.645 265.525 234.021 266.141 233.291 266.141Z"
        fill="white" />
    <defs>
        <linearGradient id="paint0_linear_1_3" x1="-24.5" y1="80.0001" x2="526" y2="274.5"
            gradientUnits="userSpaceOnUse">
            <stop stop-color="#4B2EFD" />
            <stop offset="1" stop-color="#C623FF" />
        </linearGradient>
    </defs>
</svg>