<svg xmlns="http://www.w3.org/2000/svg" width="20" height="20" viewBox="0 0 20 20" fill="none">
  <g clip-path="url(#clip0_396_42312)">
    <path d="M16.5959 10.0652C17.1069 10.0652 17.5236 10.4687 17.5236 10.9635V16.7039C17.5236 17.1988 17.1069 17.6023 16.5959 17.6023H3.40409C2.89308 17.6023 2.47642 17.1988 2.47642 16.7039V10.9635C2.47642 10.4687 2.89308 10.0652 3.40409 10.0652H16.5959ZM16.5959 7.66699H3.40409C1.52516 7.66699 0 9.14396 0 10.9635V16.7039C0 18.5235 1.52516 20.0005 3.40409 20.0005H16.5959C18.4748 20.0005 20 18.5235 20 16.7039V10.9635C20 9.14396 18.4748 7.66699 16.5959 7.66699Z" fill="white"/>
    <path d="M17.7044 0H2.2956C1.02777 0 0 0.995302 0 2.22307V3.37267C0 4.60043 1.02777 5.59574 2.2956 5.59574H17.7044C18.9722 5.59574 20 4.60043 20 3.37267V2.22307C20 0.995302 18.9722 0 17.7044 0Z" fill="white"/>
  </g>
  <defs>
    <clipPath id="clip0_396_42312">
      <rect width="20" height="20" fill="white"/>
    </clipPath>
  </defs>
</svg>