<svg width="20" height="21" viewBox="0 0 20 21" fill="none" xmlns="http://www.w3.org/2000/svg">
<path fill-rule="evenodd" clip-rule="evenodd" d="M16.6472 14.49L19.4945 17.3365C20.1685 18.0103 20.1685 19.1026 19.4945 19.7764C18.8206 20.4501 17.7279 20.4501 17.054 19.7764L14.2067 16.9299C13.982 16.7053 13.982 16.3412 14.2067 16.1166L15.8337 14.49C16.0584 14.2655 16.4226 14.2655 16.6472 14.49ZM8.62868 0C13.3942 0 17.2574 3.86206 17.2574 8.62616C17.2574 13.3903 13.3942 17.2523 8.62868 17.2523C3.86319 17.2523 0 13.3903 0 8.62616C0 3.86206 3.86319 0 8.62868 0ZM8.62868 1.45524C4.66729 1.45524 1.45591 4.66568 1.45591 8.62599C1.45591 12.5863 4.66729 15.7968 8.62868 15.7968C12.5901 15.7968 15.8015 12.5863 15.8015 8.62599C15.8015 4.66568 12.5901 1.45524 8.62868 1.45524ZM8.62868 2.01862C12.279 2.01862 15.2381 4.97686 15.2381 8.62599C15.2381 12.2751 12.279 15.2334 8.62868 15.2334C4.9784 15.2334 2.01929 12.2751 2.01929 8.62599C2.01929 4.97686 4.9784 2.01862 8.62868 2.01862ZM10.7223 3.26846C10.1305 3.0372 9.46323 3.32934 9.23191 3.92096C9.00058 4.51258 9.2928 5.17965 9.8846 5.41091C10.8254 5.77854 11.5626 6.54665 11.8917 7.49777L11.9636 7.7162C12.1763 8.27375 12.7869 8.58084 13.3679 8.40701C13.9767 8.2249 14.3225 7.58395 14.1403 6.9754C13.6334 5.28185 12.3663 3.9109 10.7223 3.26846Z" fill="white"/>
</svg>
