<svg xmlns="http://www.w3.org/2000/svg" width="75" height="40" viewBox="0 0 75 40" fill="none">
  <path fill-rule="evenodd" clip-rule="evenodd" d="M38 -0.000244141C43.5228 -0.000244141 48 4.47691 48 9.99975C48 13.6545 44.9426 18.459 38.8922 24.6252C38.4022 25.1246 37.5978 25.1246 37.1078 24.6252L36.5406 24.0421C30.8663 18.1551 28 13.5385 28 9.99975C28 4.47691 32.4772 -0.000244141 38 -0.000244141ZM41.125 8.74975C41.125 7.02387 39.7259 5.62476 38 5.62476C36.2741 5.62476 34.875 7.02387 34.875 8.74975C34.875 10.4756 36.2741 11.8748 38 11.8748C39.7259 11.8748 41.125 10.4756 41.125 8.74975Z" fill="#FFDD52"/>
  <ellipse cx="37.5" cy="36.2378" rx="37.5" ry="3.5" fill="#3B3B3B" fill-opacity="0.19"/>
</svg>