<svg xmlns="http://www.w3.org/2000/svg" width="20" height="20" viewBox="0 0 20 20" fill="none">
  <g clip-path="url(#clip0_424_934)">
    <path d="M8.58319 2.04638C12.1784 2.04638 15.1081 4.95907 15.1081 8.53342C15.1081 12.1078 12.1784 15.0205 8.58319 15.0205C4.98799 15.0205 2.05832 12.1078 2.05832 8.53342C2.05832 4.95907 4.98799 2.04638 8.58319 2.04638ZM8.58319 0C3.8422 0 0 3.81992 0 8.53342C0 13.2469 3.8422 17.0668 8.58319 17.0668C13.3242 17.0668 17.1664 13.2469 17.1664 8.53342C17.1664 3.81992 13.3242 0 8.58319 0Z" fill="white"/>
    <path d="M16.7921 15.3605C16.3902 14.9609 15.7386 14.9609 15.3367 15.3605C14.9348 15.7601 14.9348 16.4079 15.3367 16.8075L18.2476 19.7015C18.6495 20.1011 19.3011 20.1011 19.703 19.7015C20.1049 19.3019 20.1049 18.6541 19.703 18.2545L16.7921 15.3605Z" fill="white"/>
  </g>
  <defs>
    <clipPath id="clip0_424_934">
      <rect width="20" height="20" fill="white"/>
    </clipPath>
  </defs>
</svg>