<svg xmlns="http://www.w3.org/2000/svg" width="22" height="22" viewBox="0 0 22 22" fill="none">
  <path d="M8.08699 10.0322C7.50446 10.0322 7.03223 10.4799 7.03223 11.0322C7.03223 11.5845 7.50446 12.0322 8.08699 12.0322H13.9775C14.56 12.0322 15.0322 11.5845 15.0322 11.0322C15.0322 10.4799 14.56 10.0322 13.9775 10.0322H8.08699Z" fill="white"/>
  <path d="M12.0322 8.08699C12.0322 7.50446 11.5845 7.03223 11.0322 7.03223C10.4799 7.03223 10.0322 7.50446 10.0322 8.08699V13.9775C10.0322 14.56 10.4799 15.0322 11.0322 15.0322C11.5845 15.0322 12.0322 14.56 12.0322 13.9775V8.08699Z" fill="white"/>
  <path d="M11 21C16.5228 21 21 16.5228 21 11C21 5.47715 16.5228 1 11 1C5.47715 1 1 5.47715 1 11C1 16.5228 5.47715 21 11 21Z" stroke="white" stroke-width="2" stroke-linecap="round" stroke-linejoin="round"/>
</svg>