<svg xmlns="http://www.w3.org/2000/svg" width="12" height="12" viewBox="0 0 12 12" fill="none">
  <path fill-rule="evenodd" clip-rule="evenodd" d="M6 0C9.31371 0 12 2.68629 12 6C12 9.31371 9.31371 12 6 12C2.68629 12 0 9.31371 0 6C0 2.68629 2.68629 0 6 0ZM3.87868 3.03015C3.64437 2.79584 3.26447 2.79584 3.03015 3.03015C2.80817 3.25213 2.79649 3.60478 2.9951 3.84052L3.03015 3.87868L5.15122 5.99992L3.03015 8.12132C2.79584 8.35564 2.79584 8.73553 3.03015 8.96985C3.25213 9.19183 3.60478 9.20352 3.84052 9.0049L3.87868 8.96985L5.99992 6.84832L8.12132 8.96985C8.35564 9.20416 8.73553 9.20416 8.96985 8.96985C9.19183 8.74787 9.20352 8.39522 9.0049 8.15948L8.96985 8.12132L6.84832 5.99992L8.96985 3.87868C9.20416 3.64437 9.20416 3.26447 8.96985 3.03015C8.74787 2.80817 8.39522 2.79649 8.15948 2.9951L8.12132 3.03015L5.99992 5.15122L3.87868 3.03015Z" fill="white"/>
</svg>