<svg xmlns="http://www.w3.org/2000/svg" width="18" height="18" viewBox="0 0 18 18" fill="none">
<path opacity="0.8" fill-rule="evenodd" clip-rule="evenodd" d="M18 9C18 13.9706 13.9706 18 9 18C4.02944 18 -6.10673e-07 13.9706 -3.93402e-07 9C-1.76132e-07 4.02944 4.02944 -6.10673e-07 9 -3.93402e-07C13.9706 -1.76132e-07 18 4.02944 18 9ZM13.4548 5.81802C13.8062 5.46655 13.8062 4.8967 13.4548 4.54523C13.1218 4.21225 12.5928 4.19473 12.2392 4.49265L12.182 4.54523L9.00013 7.72682L5.81802 4.54523C5.46655 4.19376 4.8967 4.19376 4.54523 4.54523C4.21225 4.8782 4.19473 5.40717 4.49265 5.76077L4.54523 5.81802L7.72753 8.99987L4.54523 12.182C4.19375 12.5335 4.19375 13.1033 4.54523 13.4548C4.8782 13.7877 5.40717 13.8053 5.76077 13.5073L5.81802 13.4548L9.00013 10.2725L12.182 13.4548C12.5335 13.8062 13.1033 13.8062 13.4548 13.4548C13.7877 13.1218 13.8053 12.5928 13.5073 12.2392L13.4548 12.182L10.2732 8.99987L13.4548 5.81802Z" fill="#D7D7D7"/>
</svg>