<svg width="12" height="12" viewBox="0 0 12 12" fill="none" xmlns="http://www.w3.org/2000/svg">
<path fill-rule="evenodd" clip-rule="evenodd" d="M6 0C6.51547 0 6.93333 0.417868 6.93333 0.933333L6.933 5.06667H11.0667C11.5821 5.06667 12 5.48453 12 6C12 6.51547 11.5821 6.93333 11.0667 6.93333L6.933 6.933L6.93333 11.0667C6.93333 11.5821 6.51547 12 6 12C5.48453 12 5.06667 11.5821 5.06667 11.0667V6.933L0.933333 6.93333C0.417868 6.93333 0 6.51547 0 6C0 5.48453 0.417868 5.06667 0.933333 5.06667H5.06667V0.933333C5.06667 0.417868 5.48453 0 6 0Z" fill="#333333"/>
</svg>
