<svg xmlns="http://www.w3.org/2000/svg" width="20" height="21" viewBox="0 0 20 21" fill="none">
  <path fill-rule="evenodd" clip-rule="evenodd" d="M16.6472 14.49L19.4945 17.3365C20.1685 18.0103 20.1685 19.1026 19.4945 19.7764C18.8206 20.4501 17.7279 20.4501 17.054 19.7764L14.2067 16.9299C13.982 16.7053 13.982 16.3412 14.2067 16.1166L15.8337 14.49C16.0584 14.2655 16.4226 14.2655 16.6472 14.49ZM8.62868 0C13.3942 0 17.2574 3.86206 17.2574 8.62616C17.2574 13.3902 13.3942 17.2523 8.62868 17.2523C3.86319 17.2523 0 13.3902 0 8.62616C0 3.86206 3.86319 0 8.62868 0ZM8.62868 2.30031C5.13399 2.30031 2.30098 5.13249 2.30098 8.62616C2.30098 12.1198 5.13399 14.952 8.62868 14.952C12.1234 14.952 14.9564 12.1198 14.9564 8.62616C14.9564 5.13249 12.1234 2.30031 8.62868 2.30031ZM10.7223 3.26846C12.3663 3.91089 13.6334 5.28185 14.1403 6.9754C14.3225 7.58394 13.9767 8.2249 13.3679 8.40701C12.7869 8.58084 12.1763 8.27375 11.9636 7.7162L11.9359 7.63487C11.6323 6.62071 10.8702 5.79604 9.8846 5.41091C9.2928 5.17965 9.00058 4.51258 9.23191 3.92096C9.46323 3.32934 10.1305 3.0372 10.7223 3.26846Z" fill="#333333"/>
</svg>