<svg width="20" height="18" viewBox="0 0 20 18" fill="none" xmlns="http://www.w3.org/2000/svg">
<path fill-rule="evenodd" clip-rule="evenodd" d="M17 0C18.6569 0 20 1.34315 20 3V11C20 12.6569 18.6569 14 17 14H9.66667C9.4503 14 9.23976 14.0702 9.06667 14.2L5.6 16.8C4.94076 17.2944 4 16.824 4 16V14H3C1.34315 14 0 12.6569 0 11V3C0 1.34315 1.34315 0 3 0H17ZM6 6C6.55228 6 7 6.44772 7 7C7 7.55228 6.55228 8 6 8C5.44772 8 5 7.55228 5 7C5 6.44772 5.44772 6 6 6ZM10 6C10.5523 6 11 6.44772 11 7C11 7.55228 10.5523 8 10 8C9.44771 8 9 7.55228 9 7C9 6.44772 9.44771 6 10 6ZM14 6C14.5523 6 15 6.44772 15 7C15 7.55228 14.5523 8 14 8C13.4477 8 13 7.55228 13 7C13 6.44772 13.4477 6 14 6Z" fill="white"/>
</svg>
