<svg xmlns="http://www.w3.org/2000/svg" width="20" height="19" viewBox="0 0 20 19" fill="none">
  <path fill-rule="evenodd" clip-rule="evenodd" d="M0.35543 7.51299L8.10069 0.732183C9.21358 -0.242108 10.7897 -0.242108 11.9026 0.732183L19.6414 7.51299C20.3361 8.1211 19.9437 9.34387 19.056 9.40272H17.0809V16.1771C17.0809 17.1841 16.2768 18.0015 15.2862 18.0015H13.6651C12.6744 18.0015 11.8703 17.1841 11.8703 16.1771V13.6793C11.8703 13.1496 11.4457 12.7181 10.9246 12.7181H9.07837C8.55731 12.7181 8.13273 13.1496 8.13273 13.6793V16.2425C8.13273 17.2168 7.36078 18.0015 6.40227 18.0015H4.69111C3.7133 18.0015 2.92205 17.1972 2.92205 16.2033V9.40272H0.940828C0.0530824 9.34387 -0.339327 8.1211 0.35543 7.51299Z" fill="white"/>
</svg>