<svg width="20" height="18" viewBox="0 0 20 18" fill="none" xmlns="http://www.w3.org/2000/svg">
<path fill-rule="evenodd" clip-rule="evenodd" d="M10 3.66897L17.9975 10.7775L17.9979 14.9893C17.9979 16.6143 16.7129 17.9386 15.1055 17.9979L14.9928 18H12.9877C12.4596 18 12.027 17.5906 11.9887 17.0713L11.986 16.9964V14.6739C11.986 13.6028 11.144 12.7284 10.0858 12.6764L9.98598 12.6739C8.91158 12.6739 8.03704 13.5159 7.98502 14.5741L7.98257 14.6739V16.9964C7.98257 17.5255 7.57394 17.9589 7.05563 17.9972L6.98087 18H4.97575C3.35379 18 2.03196 16.7127 1.97271 15.1022L1.9705 14.9893V10.806L10 3.66897ZM9.32315 0.249619C9.67906 -0.0636282 10.2013 -0.0820547 10.5768 0.19434L10.6454 0.249619L19.6608 8.27806C20.0752 8.64411 20.1155 9.2772 19.7509 9.69307C19.4403 10.046 18.9371 10.1281 18.5382 9.92046L10.6643 2.92153L10.5956 2.8656C10.2425 2.60341 9.75749 2.60342 9.40442 2.86562L9.33565 2.92156L1.55328 9.83961C1.14066 10.1129 0.582818 10.044 0.249716 9.6648C-0.0858971 9.28272 -0.0805794 8.71398 0.249745 8.33874L0.307806 8.27806L9.32315 0.249619Z" fill="white"/>
</svg>
