<svg xmlns="http://www.w3.org/2000/svg" width="36" height="36" viewBox="0 0 36 36" fill="none">
  <circle cx="18" cy="18" r="18" fill="black" fill-opacity="0.3"/>
  <path fill-rule="evenodd" clip-rule="evenodd" d="M19.0417 12.1018C18.717 11.7384 18.7499 11.1819 19.1152 10.8589C19.4646 10.5499 19.9916 10.5664 20.3209 10.8865L20.3645 10.932L25.9065 17.1346C26.2736 17.5454 26.2736 18.166 25.9065 18.5768L20.3645 24.7795C20.0398 25.1429 19.4805 25.1756 19.1152 24.8526C18.7658 24.5436 18.7205 24.021 19.0014 23.6581L19.0417 23.6097L23.968 18.0961C24.0903 17.9592 24.0903 17.7523 23.968 17.6154L19.0417 12.1018Z" fill="white" stroke="white"/>
  <rect x="8.18182" y="16.3635" width="16.3636" height="2.45455" rx="1.22727" fill="white"/>
</svg>