<svg xmlns="http://www.w3.org/2000/svg" width="18" height="18" viewBox="0 0 18 18" fill="none">
  <g opacity="0.8">
    <rect width="18" height="18" rx="9" fill="black"/>
    <path fill-rule="evenodd" clip-rule="evenodd" d="M15.364 2.63593C18.8787 6.15065 18.8787 11.8491 15.364 15.3639C11.8492 18.8786 6.15076 18.8786 2.63604 15.3639C-0.87868 11.8491 -0.87868 6.15065 2.63604 2.63593C6.15076 -0.878785 11.8492 -0.878785 15.364 2.63593ZM9.9 3.59989C9.9 3.10284 9.49706 2.69989 9 2.69989C8.5291 2.69989 8.14268 3.06154 8.1033 3.52224L8.1 3.59989L8.09982 8.09953L3.6 8.09989C3.10294 8.09989 2.7 8.50284 2.7 8.99989C2.7 9.47079 3.06164 9.85722 3.52234 9.89659L3.6 9.89989L8.10014 9.89958L8.1 14.3999C8.1 14.897 8.50294 15.2999 9 15.2999C9.4709 15.2999 9.85732 14.9382 9.8967 14.4775L9.9 14.3999L9.89986 9.89958L14.4 9.89989C14.8971 9.89989 15.3 9.49695 15.3 8.99989C15.3 8.529 14.9384 8.14257 14.4777 8.1032L14.4 8.09989L9.90018 8.09953L9.9 3.59989Z" fill="#D7D7D7"/>
  </g>
</svg>