<svg width="18" height="18" viewBox="0 0 18 18" fill="none" xmlns="http://www.w3.org/2000/svg">
<path fill-rule="evenodd" clip-rule="evenodd" d="M9 0C4.02944 0 0 4.02944 0 9C0 13.9706 4.02944 18 9 18C13.9706 18 18 13.9706 18 9C18 4.02944 13.9706 0 9 0ZM9 16.2C5.02355 16.2 1.8 12.9764 1.8 9C1.8 5.02355 5.02355 1.8 9 1.8C12.9764 1.8 16.2 5.02355 16.2 9C16.2 10.9096 15.4414 12.7409 14.0912 14.0912C12.7409 15.4414 10.9096 16.2 9 16.2ZM12.6 10.188C12.4713 10.5708 12.1033 10.8211 11.7 10.8C11.6025 10.7976 11.5056 10.7824 11.412 10.755L8.712 9.855C8.34542 9.73118 8.099 9.38692 8.1 9V4.5C8.1 4.00294 8.50294 3.6 9 3.6C9.49706 3.6 9.9 4.00294 9.9 4.5V8.352L11.988 9.045C12.2234 9.11141 12.4216 9.27075 12.5371 9.48636C12.6525 9.70197 12.6752 9.95528 12.6 10.188Z" fill="white"/>
</svg>
