<svg width="20" height="20" viewBox="0 0 20 20" fill="none" xmlns="http://www.w3.org/2000/svg">
    <path fill-rule="evenodd" clip-rule="evenodd"
        d="M9.9626 0C15.5061 0 20 4.47715 20 10C20 15.5228 15.5061 20 9.9626 20C5.72907 20 1.99457 17.3646 0.54776 13.4739C0.32119 12.8646 0.633283 12.1877 1.24484 11.962C1.85639 11.7363 2.53583 12.0472 2.7624 12.6565C3.86869 15.6314 6.7249 17.6471 9.9626 17.6471C14.2018 17.6471 17.6383 14.2234 17.6383 10C17.6383 5.77665 14.2018 2.35294 9.9626 2.35294C7.55787 2.35294 5.34124 3.46119 3.89862 5.31108L6.49451 5.31135L6.5868 5.31489C7.19584 5.3618 7.67538 5.86902 7.67538 6.48783C7.67538 7.10932 7.19166 7.61826 6.57885 7.66134L6.49451 7.6643H3.32791L3.19073 7.66153C1.45671 7.59149 0.0645662 6.19957 0.00218239 4.46999L0 4.34879V1.19398L0.0035528 1.10204C0.0506318 0.495261 0.55975 0.017507 1.18087 0.017507C1.80469 0.017507 2.31553 0.499424 2.35878 1.10996L2.36174 1.19398L2.36115 3.46893C4.24543 1.29213 6.99635 0 9.9626 0Z"
        fill="#636262" />
</svg>