<svg width="271" height="81" viewBox="0 0 271 81" fill="none" xmlns="http://www.w3.org/2000/svg">
<circle cx="268" cy="78" r="3" fill="white" fill-opacity="0.2"/>
<rect x="41" y="31" width="186" height="50" rx="10" fill="black" fill-opacity="0.2"/>
<rect x="57" y="44.8682" width="21.1673" height="21.1673" rx="10.5837" fill="url(#paint0_linear_1_3)"/>
<path d="M64.7805 59.3135V58.2848L67.5821 55.5817C68.381 54.7828 68.7968 54.3123 68.7968 53.6447C68.7968 52.906 68.2113 52.4409 67.4398 52.4409C66.6245 52.4409 66.0992 52.9498 66.1047 53.7541H64.7477C64.7422 52.2549 65.8694 51.2809 67.4508 51.2809C69.0704 51.2809 70.1593 52.2494 70.1648 53.579C70.1593 54.4709 69.7325 55.1932 68.173 56.6651L66.7613 58.0659V58.1206H70.2851V59.3135H64.7805Z" fill="black"/>
<rect x="84.0352" y="44.8682" width="21.1673" height="21.1673" rx="10.5837" fill="url(#paint1_linear_1_3)"/>
<path d="M88.2625 59.3132V58.2845L91.0641 55.5815C91.863 54.7826 92.2788 54.312 92.2788 53.6445C92.2788 52.9058 91.6933 52.4407 90.9218 52.4407C90.1065 52.4407 89.5812 52.9495 89.5867 53.7539H88.2297C88.2242 52.2546 89.3514 51.2806 90.9327 51.2806C92.5524 51.2806 93.6413 52.2492 93.6468 53.5788C93.6413 54.4707 93.2145 55.193 91.655 56.6649L90.2433 58.0657V58.1204H93.7671V59.3132H88.2625ZM97.9366 59.4227C96.027 59.4227 94.8889 57.9453 94.8943 55.3517C94.8889 52.769 96.0379 51.2806 97.9366 51.2806C99.8354 51.2806 100.979 52.769 100.979 55.3517C100.979 57.9508 99.8408 59.4227 97.9366 59.4227ZM96.3279 55.3517C96.3279 57.2558 96.9408 58.2243 97.9366 58.2298C98.927 58.2243 99.5453 57.2558 99.5453 55.3517C99.5399 53.4639 98.927 52.468 97.9366 52.4626C96.9462 52.468 96.3334 53.4639 96.3279 55.3517Z" fill="black"/>
<rect x="112.121" y="44.3135" width="21.1673" height="21.1673" rx="10.5837" fill="url(#paint2_linear_1_3)"/>
<path d="M116.856 58.3132V57.2845L119.657 54.5815C120.456 53.7826 120.872 53.312 120.872 52.6445C120.872 51.9058 120.287 51.4407 119.515 51.4407C118.7 51.4407 118.175 51.9495 118.18 52.7539H116.823C116.818 51.2546 117.945 50.2806 119.526 50.2806C121.146 50.2806 122.235 51.2492 122.24 52.5788C122.235 53.4707 121.808 54.193 120.248 55.6649L118.837 57.0657V57.1204H122.361V58.3132H116.856ZM126.574 58.4227C125.025 58.4117 123.482 57.4925 123.488 54.5705C123.488 51.862 124.719 50.2806 126.661 50.2806C128.188 50.2806 129.239 51.2382 129.419 52.5241H128.007C127.865 51.9167 127.384 51.5118 126.661 51.5173C125.512 51.5118 124.872 52.5296 124.867 54.1984H124.943C125.348 53.5145 126.109 53.1096 126.979 53.115C128.401 53.1096 129.501 54.1875 129.496 55.6868C129.501 57.2626 128.325 58.4336 126.574 58.4227ZM125.02 55.7305C125.031 56.5568 125.676 57.2681 126.574 57.2736C127.455 57.2681 128.111 56.5896 128.117 55.7196C128.111 54.8769 127.477 54.1984 126.596 54.1984C125.704 54.1984 125.031 54.9043 125.02 55.7305Z" fill="black"/>
<rect x="138.417" y="45.179" width="20.5447" height="20.5447" rx="10.2724" fill="#F3F3F9" fill-opacity="0.44" stroke="white" stroke-width="0.622568" stroke-linejoin="round" stroke-dasharray="1.25 1.25"/>
<mask id="mask0_1_3" style="mask-type:alpha" maskUnits="userSpaceOnUse" x="143" y="50" width="11" height="11">
<rect x="144.182" y="50.8135" width="9" height="9" fill="#D9D9D9" stroke="white"/>
</mask>
<g mask="url(#mask0_1_3)">
<path d="M148.682 52.3135L148.682 58.3135" stroke="white" stroke-linecap="round"/>
<path d="M145.682 55.3135L151.682 55.3135" stroke="white" stroke-linecap="round"/>
</g>
<rect x="165.452" y="45.179" width="20.5447" height="20.5447" rx="10.2724" fill="#F3F3F9" fill-opacity="0.44" stroke="white" stroke-width="0.622568" stroke-linejoin="round" stroke-dasharray="1.25 1.25"/>
<mask id="mask1_1_3" style="mask-type:alpha" maskUnits="userSpaceOnUse" x="170" y="50" width="11" height="11">
<rect x="170.742" y="50.8135" width="9" height="9" fill="#D9D9D9" stroke="white"/>
</mask>
<g mask="url(#mask1_1_3)">
</g>
<path d="M175.242 52.3135L175.242 58.3135" stroke="white" stroke-linecap="round"/>
<path d="M172.242 55.3135L178.242 55.3135" stroke="white" stroke-linecap="round"/>
<mask id="mask2_1_3" style="mask-type:alpha" maskUnits="userSpaceOnUse" x="197" y="50" width="11" height="11">
<rect x="198.301" y="50.8135" width="9" height="9" fill="#D9D9D9" stroke="white"/>
</mask>
<g mask="url(#mask2_1_3)">
<path d="M202.801 52.3135L202.801 58.3135" stroke="white" stroke-linecap="round"/>
<path d="M199.801 55.3135L205.801 55.3135" stroke="white" stroke-linecap="round"/>
</g>
<rect x="192.486" y="45.179" width="20.5447" height="20.5447" rx="10.2724" fill="#F3F3F9" fill-opacity="0.44" stroke="white" stroke-width="0.622568" stroke-linejoin="round" stroke-dasharray="1.25 1.25"/>
<path d="M9 70.5C5.74529 71.1884 5.18662 71.7453 4.5 75C3.81157 71.7453 3.25471 71.1866 0 70.5C3.25471 69.8116 3.81338 69.2547 4.5 66C5.18843 69.2547 5.74529 69.8134 9 70.5Z" fill="white"/>
<path d="M250 4.5C246.745 5.18843 246.187 5.74529 245.5 9C244.812 5.74529 244.255 5.18662 241 4.5C244.255 3.81157 244.813 3.25471 245.5 0C246.188 3.25471 246.745 3.81338 250 4.5Z" fill="white"/>
<defs>
<linearGradient id="paint0_linear_1_3" x1="61.6304" y1="47.5141" x2="74.1984" y2="64.051" gradientUnits="userSpaceOnUse">
<stop stop-color="#FFCD12"/>
<stop offset="0.780676" stop-color="#FFF2AB"/>
</linearGradient>
<linearGradient id="paint1_linear_1_3" x1="88.6655" y1="47.5141" x2="101.234" y2="64.051" gradientUnits="userSpaceOnUse">
<stop stop-color="#5F88F1"/>
<stop offset="0.780676" stop-color="#9BB2FB"/>
</linearGradient>
<linearGradient id="paint2_linear_1_3" x1="116.751" y1="46.9594" x2="129.32" y2="63.4964" gradientUnits="userSpaceOnUse">
<stop stop-color="#FF6969"/>
<stop offset="0.780676" stop-color="#FEB1B1"/>
</linearGradient>
</defs>
</svg>
