<svg width="253" height="116" viewBox="0 0 253 116" fill="none" xmlns="http://www.w3.org/2000/svg">
<circle cx="3" cy="94" r="3" fill="white" fill-opacity="0.8"/>
<circle cx="217" cy="3" r="3" fill="white" fill-opacity="0.9"/>
<circle cx="250" cy="33" r="3" fill="white" fill-opacity="0.2"/>
<path d="M86 77.5L122 102L163.5 68.5L205 106L243 85" stroke="#C2B8FF" stroke-width="2"/>
<rect x="76" y="67" width="18.7385" height="18.7385" rx="9.36923" fill="#FFDD52" stroke="#242429"/>
<path d="M86.7836 72.9297V80H85.5044V74.1699H85.4653L83.8149 75.2246V74.0625L85.5629 72.9297H86.7836Z" fill="black"/>
<rect x="113" y="92" width="18.7385" height="18.7385" rx="9.36923" fill="#4443F6" stroke="#242429"/>
<path d="M120.556 97.9297V105H119.277V99.1699H119.238L117.587 100.225V99.0625L119.335 97.9297H120.556ZM122.148 103.682V102.666L125.205 97.9297H126.787V102.637H127.714V103.682H126.787V105H125.576V103.682H122.148ZM123.447 102.637H125.595V99.375H125.517L123.447 102.588V102.637Z" fill="white"/>
<rect x="154" y="59" width="18.7385" height="18.7385" rx="9.36923" fill="#FF2323" stroke="#242429"/>
<path d="M157.924 72V71.082L160.424 68.6699C161.137 67.957 161.508 67.5371 161.508 66.9414C161.508 66.2822 160.985 65.8672 160.297 65.8672C159.569 65.8672 159.101 66.3213 159.105 67.0391H157.895C157.89 65.7012 158.896 64.832 160.307 64.832C161.752 64.832 162.724 65.6963 162.729 66.8828C162.724 67.6787 162.343 68.3232 160.951 69.6367L159.691 70.8867V70.9355H162.836V72H157.924ZM163.666 70.6816V69.666L166.723 64.9297H168.305V69.6367H169.232V70.6816H168.305V72H167.094V70.6816H163.666ZM164.965 69.6367H167.113V66.375H167.035L164.965 69.5879V69.6367Z" fill="white"/>
<rect x="195" y="96" width="18.7385" height="18.7385" rx="9.36923" fill="#1C1919" stroke="#242429"/>
<path d="M202.2 109.098C200.691 109.098 199.612 108.277 199.583 107.086H200.862C200.896 107.652 201.463 108.028 202.2 108.023C202.977 108.028 203.538 107.599 203.538 106.969C203.538 106.334 202.991 105.88 202.073 105.875H201.438V104.898H202.073C202.825 104.898 203.348 104.479 203.343 103.863C203.348 103.268 202.898 102.867 202.21 102.867C201.546 102.867 200.975 103.238 200.95 103.834H199.729C199.759 102.647 200.838 101.832 202.22 101.832C203.655 101.832 204.583 102.711 204.573 103.795C204.583 104.586 204.056 105.157 203.284 105.318V105.377C204.28 105.509 204.847 106.148 204.837 107.037C204.847 108.233 203.729 109.098 202.2 109.098ZM208.821 101.93V109H207.542V103.17H207.503L205.853 104.225V103.062L207.601 101.93H208.821Z" fill="white"/>
<rect x="232" y="76" width="18.7385" height="18.7385" rx="9.36923" fill="#62EB5E" stroke="#242429"/>
<path d="M235.482 87.3561V86.4045L238.345 81.967H239.828V86.3771H240.697V87.3561H239.828V88.5913H238.693V87.3561H235.482ZM236.698 86.3771H238.711V83.3211H238.638L236.698 86.3313V86.3771ZM244 88.6828C242.673 88.6828 241.703 87.8959 241.667 86.798H242.829C242.865 87.3378 243.369 87.7221 244 87.7221C244.741 87.7221 245.272 87.1823 245.272 86.4503C245.272 85.6909 244.723 85.151 243.963 85.151C243.451 85.1419 243.076 85.3249 242.865 85.7183H241.758L242.161 81.967H246.077V82.9643H243.14L242.939 84.721H243.003C243.259 84.4282 243.744 84.2178 244.284 84.2178C245.519 84.2178 246.425 85.1419 246.425 86.4137C246.425 87.7404 245.427 88.6828 244 88.6828Z" fill="black"/>
</svg>
