<svg width="203" height="57" viewBox="0 0 203 57" fill="none" xmlns="http://www.w3.org/2000/svg">
<rect x="17.4575" y="18.6306" width="18.7385" height="18.7385" rx="9.36923" fill="white"/>
<path d="M28.0717 25.1298V31.7542H26.8731V26.2918H26.8365L25.2902 27.28V26.1912L26.928 25.1298H28.0717Z" fill="#A7A0D3"/>
<rect x="47.127" y="18.6306" width="18.7385" height="18.7385" rx="9.36923" fill="#FFDD52"/>
<path d="M54.3786 31.7542V30.8941L56.7209 28.6341C57.3888 27.9662 57.7365 27.5728 57.7365 27.0146C57.7365 26.397 57.247 26.0082 56.602 26.0082C55.9203 26.0082 55.4811 26.4336 55.4857 27.1061H54.3512C54.3466 25.8526 55.289 25.0383 56.6111 25.0383C57.9653 25.0383 58.8757 25.8481 58.8802 26.9597C58.8757 27.7054 58.5188 28.3093 57.215 29.5399L56.0347 30.7111V30.7568H58.9809V31.7542H54.3786Z" fill="#A7A0D3"/>
<rect x="76.7961" y="18.6306" width="18.7385" height="18.7385" rx="9.36923" fill="#4443F6"/>
<path d="M84.2624 24.8171V31.4414H83.0638V25.9791H83.0272L81.4809 26.9672V25.8784L83.1187 24.8171H84.2624ZM88.3156 31.5329C86.719 31.5329 85.7675 30.2977 85.772 28.1292C85.7675 25.9699 86.7282 24.7256 88.3156 24.7256C89.9031 24.7256 90.8592 25.9699 90.8592 28.1292C90.8592 30.3023 89.9077 31.5329 88.3156 31.5329ZM86.9707 28.1292C86.9707 29.7213 87.483 30.531 88.3156 30.5356C89.1437 30.531 89.6606 29.7213 89.6606 28.1292C89.6561 26.5509 89.1437 25.7183 88.3156 25.7137C87.4876 25.7183 86.9752 26.5509 86.9707 28.1292Z" fill="#A7A0D3"/>
<rect x="106.465" y="18.6306" width="18.7385" height="18.7385" rx="9.36923" fill="#FF2323"/>
<path d="M109.948 31.2222V30.3621L112.29 28.1021C112.958 27.4342 113.305 27.0408 113.305 26.4827C113.305 25.8651 112.816 25.4762 112.171 25.4762C111.489 25.4762 111.05 25.9017 111.055 26.5742H109.92C109.915 25.3207 110.858 24.5063 112.18 24.5063C113.534 24.5063 114.445 25.3161 114.449 26.4278C114.445 27.1735 114.088 27.7773 112.784 29.008L111.604 30.1791V30.2249H114.55V31.2222H109.948ZM118.036 31.3137C116.439 31.3137 115.488 30.0785 115.492 27.91C115.488 25.7507 116.448 24.5063 118.036 24.5063C119.623 24.5063 120.579 25.7507 120.579 27.91C120.579 30.083 119.628 31.3137 118.036 31.3137ZM116.691 27.91C116.691 29.502 117.203 30.3118 118.036 30.3164C118.864 30.3118 119.381 29.502 119.381 27.91C119.376 26.3317 118.864 25.4991 118.036 25.4945C117.208 25.4991 116.695 26.3317 116.691 27.91Z" fill="#A7A0D3"/>
<rect x="136.135" y="18.6306" width="18.7385" height="18.7385" rx="9.36923" fill="#1C1919"/>
<path d="M142.137 31.3137C140.724 31.3137 139.713 30.5451 139.685 29.4288H140.884C140.916 29.9595 141.447 30.3118 142.137 30.3072C142.865 30.3118 143.391 29.9092 143.391 29.319C143.391 28.7243 142.878 28.2989 142.018 28.2943H141.424V27.3793H142.018C142.723 27.3793 143.212 26.9859 143.208 26.4095C143.212 25.8513 142.792 25.4762 142.146 25.4762C141.524 25.4762 140.989 25.8239 140.966 26.382H139.822C139.85 25.2703 140.861 24.5063 142.156 24.5063C143.501 24.5063 144.37 25.3298 144.361 26.3454C144.37 27.0865 143.876 27.6218 143.153 27.7728V27.8277C144.086 27.9512 144.617 28.5505 144.608 29.3831C144.617 30.5039 143.569 31.3137 142.137 31.3137ZM148.057 31.3137C146.644 31.3137 145.632 30.5451 145.605 29.4288H146.804C146.836 29.9595 147.366 30.3118 148.057 30.3072C148.785 30.3118 149.311 29.9092 149.311 29.319C149.311 28.7243 148.798 28.2989 147.938 28.2943H147.343V27.3793H147.938C148.643 27.3793 149.132 26.9859 149.128 26.4095C149.132 25.8513 148.711 25.4762 148.066 25.4762C147.444 25.4762 146.909 25.8239 146.886 26.382H145.742C145.77 25.2703 146.781 24.5063 148.075 24.5063C149.42 24.5063 150.29 25.3298 150.281 26.3454C150.29 27.0865 149.796 27.6218 149.073 27.7728V27.8277C150.006 27.9512 150.537 28.5505 150.528 29.3831C150.537 30.5039 149.489 31.3137 148.057 31.3137Z" fill="#A7A0D3"/>
<rect x="165.804" y="18.6306" width="18.7385" height="18.7385" rx="9.36923" fill="#62EB5E"/>
<path d="M169.286 29.987V29.0354L172.149 24.5978H173.632V29.008H174.501V29.987H173.632V31.2222H172.497V29.987H169.286ZM170.502 29.008H172.515V25.952H172.442L170.502 28.9622V29.008ZM177.804 31.3137C176.482 31.3137 175.507 30.5222 175.471 29.4288H176.633C176.669 29.9641 177.177 30.3484 177.804 30.353C178.545 30.3484 179.08 29.8131 179.076 29.0812C179.08 28.3217 178.531 27.7865 177.767 27.7819C177.25 27.7773 176.875 27.9603 176.669 28.3492H175.562L175.965 24.5978H179.881V25.5951H176.944L176.742 27.3519H176.807C177.063 27.0637 177.543 26.8532 178.087 26.8486C179.318 26.8532 180.233 27.7682 180.229 29.0446C180.233 30.3667 179.236 31.3137 177.804 31.3137Z" fill="#A7A0D3"/>
</svg>
