<svg xmlns="http://www.w3.org/2000/svg" width="40" height="40" viewBox="0 0 40 40" fill="none">
  <circle cx="20" cy="20" r="20" transform="rotate(-90 20 20)" fill="white" fill-opacity="0.3"/>
  <path d="M12.9638 25.2926C12.5733 25.6832 12.5733 26.3163 12.9638 26.7069C13.3543 27.0974 13.9875 27.0974 14.378 26.7069L12.9638 25.2926ZM26.6917 13.9789C26.6917 13.4267 26.244 12.9789 25.6917 12.9789L16.6917 12.9789C16.1394 12.9789 15.6917 13.4267 15.6917 13.9789C15.6917 14.5312 16.1394 14.9789 16.6917 14.9789L24.6917 14.9789L24.6917 22.9789C24.6917 23.5312 25.1394 23.9789 25.6917 23.9789C26.244 23.9789 26.6917 23.5312 26.6917 22.9789L26.6917 13.9789ZM14.378 26.7069L26.3988 14.686L24.9846 13.2718L12.9638 25.2926L14.378 26.7069Z" fill="white"/>
</svg>